# xmcd
#
# Track frame offsets:
#	150
#	12080
#	25297
#	38587
#	50355
#	63362
#	75432
#	89272
#	102540
#	114502
#	128422
#	141680
#	154245
#	165665
#	177942
#	191217
#	205045
#	218750
#	232965
#	247170
#	262272
#
# Disc length: 3682 seconds
#
# Revision: 3
# Processed by: cddbd v1.4PL0 Copyright (c) Steve Scherf et al.
# Submitted via: Gronk 1.4
#
DISCID=240e6015
DTITLE=Jay McShann - Blues From Kansas City
DYEAR=1900
DGENRE=blues
TTITLE0=Swingmatism
TTITLE1=Hootie Blues
TTITLE2=Dexter Blues
TTITLE3=Vine Street Boogie
TTITLE4=Confessin' The Blues
TTITLE5=Hold 'Em Hootie
TTITLE6=One Woman's Man
TTITLE7='Fore Day Rider
TTITLE8=So You Won't Jump
TTITLE9=New Confessin' The Blues
TTITLE10=Red River Blues
TTITLE11=Baby Heart Blues
TTITLE12=Cryin' Won't Make Me Stay
TTITLE13=Hootie's Ignorant Oil
TTITLE14=Lonely Boy Blues
TTITLE15=Get Me On Your Mind
TTITLE16=The Jumpin' Blues
TTITLE17=Sepian Bounce
TTITLE18=Say Forward, I'll March
TTITLE19=Wrong Neighborhood
TTITLE20=Hometown Blues
EXTD=
EXTT0=
EXTT1=
EXTT2=
EXTT3=
EXTT4=
EXTT5=
EXTT6=
EXTT7=
EXTT8=
EXTT9=
EXTT10=
EXTT11=
EXTT12=
EXTT13=
EXTT14=
EXTT15=
EXTT16=
EXTT17=
EXTT18=
EXTT19=
EXTT20=
PLAYORDER=
